<?xml version="1.0" standalone="no"?>
<!DOCTYPE svg PUBLIC "-//W3C//DTD SVG 20010904//EN"
 "http://www.w3.org/TR/2001/REC-SVG-20010904/DTD/svg10.dtd">
<svg version="1.0" xmlns="http://www.w3.org/2000/svg"
 width="300.000000pt" height="300.000000pt" viewBox="0 0 300.000000 300.000000"
 preserveAspectRatio="xMidYMid meet">
<g transform="translate(0.000000,300.000000) scale(0.100000,-0.100000)"
fill="#c31a00" stroke="none">
<path d="M337 2960 c-90 -16 -178 -85 -223 -176 -13 -27 -24 -43 -24 -36 0 7
5 22 10 33 6 10 8 19 5 19 -3 0 -18 -26 -33 -57 l-27 -58 0 -1175 c0 -1100 1
-1178 18 -1226 35 -100 121 -185 222 -218 46 -15 157 -16 1230 -14 l1180 3 58
29 c68 35 133 101 167 171 l25 50 3 1180 c2 1075 1 1184 -14 1230 -9 27 -24
59 -32 70 -13 18 -14 18 -8 2 3 -11 8 -31 11 -45 4 -19 1 -16 -9 9 -36 92 -91
149 -184 192 l-47 22 -1140 1 c-627 1 -1161 -2 -1188 -6z m2163 -1155 l0 -505
100 0 100 0 0 -140 0 -140 -100 0 -100 0 0 -155 0 -155 -165 0 -165 0 0 155 0
155 -335 0 c-320 0 -335 1 -326 18 5 10 17 56 27 102 25 127 12 254 -40 370
-4 11 25 52 91 131 54 64 188 223 298 354 110 132 215 256 234 277 l33 38 174
0 174 0 0 -505z m-1337 483 c-4 -7 -94 -131 -201 -276 -107 -145 -191 -266
-188 -269 3 -3 31 -1 63 5 118 22 167 24 243 8 101 -21 172 -59 245 -132 207
-203 203 -531 -8 -738 -122 -120 -251 -169 -442 -170 -174 0 -277 39 -393 149
-99 93 -143 182 -161 322 -30 238 76 506 355 896 l155 217 170 0 c134 0 169
-3 162 -12z"/>
<path d="M2113 1887 c-28 -34 -151 -179 -272 -322 l-221 -260 272 -3 c149 -1
273 -1 275 1 2 2 2 148 1 325 l-3 321 -52 -62z"/>
<path d="M833 1560 c-65 -13 -116 -45 -167 -101 -130 -145 -85 -367 94 -460
37 -20 60 -24 130 -24 75 0 91 3 132 27 204 121 202 433 -5 532 -60 29 -125
38 -184 26z"/>
</g>
</svg>
