<?xml version="1.0" encoding="utf-8"?>
<!-- Generator: Adobe Illustrator 23.1.0, SVG Export Plug-In . SVG Version: 6.00 Build 0)  -->
<svg version="1.1" xmlns="http://www.w3.org/2000/svg" xmlns:xlink="http://www.w3.org/1999/xlink" x="0px" y="0px"
	 viewBox="0 0 48 48" style="enable-background:new 0 0 48 48;" xml:space="preserve">
<style type="text/css">
	.st0{fill:url(#SVGID_1_);}
	.st1{fill:url(#SVGID_2_);}
	.st2{fill:url(#SVGID_3_);}
	.st3{fill:#B29719;}
	.st4{fill:url(#SVGID_4_);}
</style>
<g id="Layer_1">
</g>
<g id="Layer_3">
	<g>
		<linearGradient id="SVGID_1_" gradientUnits="userSpaceOnUse" x1="7.6273" y1="4.6795" x2="40.4001" y2="43.3528">
			<stop  offset="0" style="stop-color:#565555"/>
			<stop  offset="1" style="stop-color:#202020"/>
		</linearGradient>
		<rect x="2" y="2" class="st0" width="44" height="44"/>
	</g>
</g>
<g id="Layer_4">
	<g>
		<linearGradient id="SVGID_2_" gradientUnits="userSpaceOnUse" x1="14.1059" y1="12.3246" x2="33.9106" y2="35.695">
			<stop  offset="0" style="stop-color:#FFFFFF"/>
			<stop  offset="7.028113e-02" style="stop-color:#E4E4E4"/>
			<stop  offset="7.282644e-02" style="stop-color:#E4E4E4"/>
			<stop  offset="0.2211" style="stop-color:#D7D7D7"/>
			<stop  offset="0.3635" style="stop-color:#D2D2D2"/>
			<stop  offset="1" style="stop-color:#676767"/>
		</linearGradient>
		<path class="st1" d="M33.1,39H14.9C11.6,39,9,36.4,9,33.1V14.9C9,11.6,11.6,9,14.9,9h18.3c3.2,0,5.9,2.6,5.9,5.9v18.3
			C39,36.4,36.4,39,33.1,39z"/>
		<linearGradient id="SVGID_3_" gradientUnits="userSpaceOnUse" x1="11.8859" y1="9.7049" x2="36.1141" y2="38.2951">
			<stop  offset="0" style="stop-color:#DBDBDB"/>
			<stop  offset="1" style="stop-color:#323232"/>
		</linearGradient>
		<path class="st2" d="M33.1,10c2.7,0,4.9,2.2,4.9,4.9v18.3c0,2.7-2.2,4.9-4.9,4.9H14.9c-2.7,0-4.9-2.2-4.9-4.9V14.9
			c0-2.7,2.2-4.9,4.9-4.9H33.1 M33.1,9H14.9C11.6,9,9,11.6,9,14.9v18.3c0,3.2,2.6,5.9,5.9,5.9h18.3c3.2,0,5.9-2.6,5.9-5.9V14.9
			C39,11.6,36.4,9,33.1,9L33.1,9z"/>
	</g>
</g>
<g id="Layer_2">
	<rect x="44" y="3" class="st3" width="1" height="1"/>
	<rect x="42" y="4" class="st3" width="1" height="1"/>
	<rect x="42" y="6" class="st3" width="1" height="1"/>
	<rect x="44" y="5" class="st3" width="1" height="1"/>
	<rect x="44" y="7" class="st3" width="1" height="1"/>
	<rect x="44" y="9" class="st3" width="1" height="1"/>
	<rect x="32" y="42" class="st3" width="12" height="1"/>
	<rect x="30" y="44" class="st3" width="15" height="1"/>
	<polygon class="st3" points="8,44 8,43 7,43 7,42 6,42 6,41 5,41 5,40 4,40 4,39 3,39 3,40 3,41 3,42 3,43 3,44 3,45 9,45 9,44 	
		"/>
</g>
<g id="Layer_5">
	<g>
		<linearGradient id="SVGID_4_" gradientUnits="userSpaceOnUse" x1="6.1389" y1="2.9231" x2="41.891" y2="45.1122">
			<stop  offset="0" style="stop-color:#949494"/>
			<stop  offset="1" style="stop-color:#040506"/>
		</linearGradient>
		<path class="st4" d="M0,0v48h48V0H0z M46,46H2V2h44V46z"/>
	</g>
</g>
</svg>
