<svg xmlns="http://www.w3.org/2000/svg" viewBox="0 0 26 26">
    <g id="Layer_2" data-name="Layer 2">
        <g id="Layer_2-2" data-name="Layer 2">
            <line x1="8.44" y1="24.35" x2="4.44" y2="24.35"
                  style="fill:none;stroke:currentColor;stroke-linejoin:round;stroke-width:2px"/>
            <line x1="8.44" y1="23.04" x2="4.44" y2="23.04"
                  style="fill:none;stroke:currentColor;stroke-linejoin:round;stroke-width:2px"/>
            <line x1="11.44" y1="24.35" x2="9.44" y2="24.35"
                  style="fill:none;stroke:currentColor;stroke-linejoin:round;stroke-width:2px"/>
            <line x1="11.44" y1="23.04" x2="9.44" y2="23.04"
                  style="fill:none;stroke:currentColor;stroke-linejoin:round;stroke-width:2px"/>
            <line x1="13.85" y1="24.35" x2="11.85" y2="24.35"
                  style="fill:none;stroke:currentColor;stroke-linejoin:round;stroke-width:2px"/>
            <line x1="13.85" y1="23.04" x2="11.85" y2="23.04"
                  style="fill:none;stroke:currentColor;stroke-linejoin:round;stroke-width:2px"/>
            <line x1="5.44" y1="15.65" x2="1.85" y2="17.17"
                  style="fill:none;stroke:currentColor;stroke-linecap:square;stroke-linejoin:round;stroke-width:2px"/>
            <line x1="5.44" y1="5.17" x2="1.85" y2="3.65"
                  style="fill:none;stroke:currentColor;stroke-linecap:square;stroke-linejoin:round;stroke-width:2px"/>
            <line x1="21.09" y1="20.15" x2="21.09" y2="13.52"
                  style="fill:none;stroke:currentColor;stroke-linecap:square;stroke-linejoin:round;stroke-width:2px"/>
            <line x1="5.76" y1="15.15" x2="5.76" y2="5.64"
                  style="fill:none;stroke:currentColor;stroke-linecap:square;stroke-linejoin:round;stroke-width:2px"/>
            <line x1="1.55" y1="15.65" x2="1.54" y2="5.17"
                  style="fill:none;stroke:currentColor;stroke-linecap:square;stroke-linejoin:round;stroke-width:2px"/>
            <line x1="8.85" y1="9.12" x2="8.85" y2="9.12"
                  style="fill:none;stroke:currentColor;stroke-linecap:round;stroke-linejoin:round;stroke-width:2px"/>
            <line x1="5.44" y1="19.59" x2="5.44" y2="19.59"
                  style="fill:none;stroke:currentColor;stroke-linecap:round;stroke-linejoin:round;stroke-width:2px"/>
            <line x1="8.85" y1="4.63" x2="8.85" y2="4.63"
                  style="fill:none;stroke:currentColor;stroke-linecap:round;stroke-linejoin:round;stroke-width:2px"/>
            <line x1="8.85" y1="6.87" x2="8.85" y2="6.87"
                  style="fill:none;stroke:currentColor;stroke-linecap:round;stroke-linejoin:round;stroke-width:2px"/>
            <rect x="2.46" y="1.65" width="22" height="22"
                  style="fill:none;stroke:currentColor;stroke-linecap:round;stroke-linejoin:round;stroke-width:2px"/>
            <rect x="12.23" y="4.62" width="4.5" height="4.5"
                  style="fill:none;stroke:currentColor;stroke-linecap:round;stroke-linejoin:round;stroke-width:2px"/>
            <polygon points="19.74 9.26 19.74 4.76 21.44 5.64 21.44 10.14 19.74 9.26"
                     style="fill:none;stroke:currentColor;stroke-linecap:round;stroke-width:2px"/>
            <polygon points="17.89 19.84 9.68 19.84 9.53 19.59 17.74 19.59 17.89 19.84"
                     style="fill:none;stroke:currentColor;stroke-linecap:round;stroke-width:2px"/>
            <polygon points="17.89 16.84 9.68 16.84 9.53 16.59 17.74 16.59 17.89 16.84"
                     style="fill:none;stroke:currentColor;stroke-linecap:round;stroke-width:2px"/>
            <polygon points="17.89 13.77 9.68 13.77 9.53 13.52 17.74 13.52 17.89 13.77"
                     style="fill:none;stroke:currentColor;stroke-linecap:round;stroke-width:2px"/>
        </g>
        <g id="Layer_3" data-name="Layer 3">
            <rect width="26" height="26" style="fill:none"/>
        </g>
    </g>
</svg>